<mxfile host="app.diagrams.net" modified="2021-04-17T05:13:20.248Z" agent="5.0 (Windows NT 10.0; Win64; x64) AppleWebKit/537.36 (KHTML, like Gecko) Chrome/90.0.4430.72 Safari/537.36" etag="wYDDVe615SZH-3ZohDZD" version="14.4.4" type="github" pages="2">
  <diagram id="TetxVeqAev78qztmmzDk" name="APP">
    <mxGraphModel dx="1715" dy="507" grid="1" gridSize="10" guides="1" tooltips="1" connect="1" arrows="1" fold="1" page="1" pageScale="1" pageWidth="850" pageHeight="1100" math="0" shadow="0">
      <root>
        <mxCell id="0" />
        <mxCell id="1" parent="0" />
        <mxCell id="2AGVGex4qNpOd4WzxgjA-1" value="Profile" style="swimlane;fontStyle=1;align=center;verticalAlign=top;childLayout=stackLayout;horizontal=1;startSize=26;horizontalStack=0;resizeParent=1;resizeParentMax=0;resizeLast=0;collapsible=1;marginBottom=0;" vertex="1" parent="1">
          <mxGeometry x="260" y="257.4" width="180" height="190" as="geometry" />
        </mxCell>
        <mxCell id="2AGVGex4qNpOd4WzxgjA-14" value="+ features:Profile_Feature&#xa;" style="text;strokeColor=none;fillColor=none;align=left;verticalAlign=top;spacingLeft=4;spacingRight=4;overflow=hidden;rotatable=0;points=[[0,0.5],[1,0.5]];portConstraint=eastwest;" vertex="1" parent="2AGVGex4qNpOd4WzxgjA-1">
          <mxGeometry y="26" width="180" height="26" as="geometry" />
        </mxCell>
        <mxCell id="lxGhpvrVPsPuXbHdnktH-26" value="+ user_name:string&#xa;" style="text;strokeColor=none;fillColor=none;align=left;verticalAlign=top;spacingLeft=4;spacingRight=4;overflow=hidden;rotatable=0;points=[[0,0.5],[1,0.5]];portConstraint=eastwest;" vertex="1" parent="2AGVGex4qNpOd4WzxgjA-1">
          <mxGeometry y="52" width="180" height="26" as="geometry" />
        </mxCell>
        <mxCell id="lxGhpvrVPsPuXbHdnktH-19" value="+ user_ID_number:int&#xa;" style="text;strokeColor=none;fillColor=none;align=left;verticalAlign=top;spacingLeft=4;spacingRight=4;overflow=hidden;rotatable=0;points=[[0,0.5],[1,0.5]];portConstraint=eastwest;" vertex="1" parent="2AGVGex4qNpOd4WzxgjA-1">
          <mxGeometry y="78" width="180" height="26" as="geometry" />
        </mxCell>
        <mxCell id="lxGhpvrVPsPuXbHdnktH-20" value="+ user_password:string&#xa;" style="text;strokeColor=none;fillColor=none;align=left;verticalAlign=top;spacingLeft=4;spacingRight=4;overflow=hidden;rotatable=0;points=[[0,0.5],[1,0.5]];portConstraint=eastwest;" vertex="1" parent="2AGVGex4qNpOd4WzxgjA-1">
          <mxGeometry y="104" width="180" height="26" as="geometry" />
        </mxCell>
        <mxCell id="2AGVGex4qNpOd4WzxgjA-3" value="" style="line;strokeWidth=1;fillColor=none;align=left;verticalAlign=middle;spacingTop=-1;spacingLeft=3;spacingRight=3;rotatable=0;labelPosition=right;points=[];portConstraint=eastwest;" vertex="1" parent="2AGVGex4qNpOd4WzxgjA-1">
          <mxGeometry y="130" width="180" height="8" as="geometry" />
        </mxCell>
        <mxCell id="2AGVGex4qNpOd4WzxgjA-5" value="+ Clear_Profile(str): void" style="text;strokeColor=none;fillColor=none;align=left;verticalAlign=top;spacingLeft=4;spacingRight=4;overflow=hidden;rotatable=0;points=[[0,0.5],[1,0.5]];portConstraint=eastwest;" vertex="1" parent="2AGVGex4qNpOd4WzxgjA-1">
          <mxGeometry y="138" width="180" height="26" as="geometry" />
        </mxCell>
        <mxCell id="2AGVGex4qNpOd4WzxgjA-6" value="+ Clear(str): void" style="text;strokeColor=none;fillColor=none;align=left;verticalAlign=top;spacingLeft=4;spacingRight=4;overflow=hidden;rotatable=0;points=[[0,0.5],[1,0.5]];portConstraint=eastwest;" vertex="1" parent="2AGVGex4qNpOd4WzxgjA-1">
          <mxGeometry y="164" width="180" height="26" as="geometry" />
        </mxCell>
        <mxCell id="lxGhpvrVPsPuXbHdnktH-50" style="edgeStyle=orthogonalEdgeStyle;rounded=0;orthogonalLoop=1;jettySize=auto;html=1;exitX=1;exitY=0;exitDx=0;exitDy=0;entryX=0;entryY=0.5;entryDx=0;entryDy=0;" edge="1" parent="1" source="2AGVGex4qNpOd4WzxgjA-7" target="lxGhpvrVPsPuXbHdnktH-8">
          <mxGeometry relative="1" as="geometry">
            <Array as="points">
              <mxPoint x="510" y="40" />
              <mxPoint x="530" y="40" />
              <mxPoint x="530" y="129" />
            </Array>
          </mxGeometry>
        </mxCell>
        <mxCell id="2AGVGex4qNpOd4WzxgjA-7" value="Feature" style="swimlane;fontStyle=1;align=center;verticalAlign=top;childLayout=stackLayout;horizontal=1;startSize=26;horizontalStack=0;resizeParent=1;resizeParentMax=0;resizeLast=0;collapsible=1;marginBottom=0;" vertex="1" parent="1">
          <mxGeometry x="350" y="30" width="160" height="216" as="geometry" />
        </mxCell>
        <mxCell id="2AGVGex4qNpOd4WzxgjA-8" value="+ name: String" style="text;strokeColor=none;fillColor=none;align=left;verticalAlign=top;spacingLeft=4;spacingRight=4;overflow=hidden;rotatable=0;points=[[0,0.5],[1,0.5]];portConstraint=eastwest;" vertex="1" parent="2AGVGex4qNpOd4WzxgjA-7">
          <mxGeometry y="26" width="160" height="26" as="geometry" />
        </mxCell>
        <mxCell id="2AGVGex4qNpOd4WzxgjA-13" value="+ value: int" style="text;strokeColor=none;fillColor=none;align=left;verticalAlign=top;spacingLeft=4;spacingRight=4;overflow=hidden;rotatable=0;points=[[0,0.5],[1,0.5]];portConstraint=eastwest;" vertex="1" parent="2AGVGex4qNpOd4WzxgjA-7">
          <mxGeometry y="52" width="160" height="26" as="geometry" />
        </mxCell>
        <mxCell id="2AGVGex4qNpOd4WzxgjA-9" value="" style="line;strokeWidth=1;fillColor=none;align=left;verticalAlign=middle;spacingTop=-1;spacingLeft=3;spacingRight=3;rotatable=0;labelPosition=right;points=[];portConstraint=eastwest;" vertex="1" parent="2AGVGex4qNpOd4WzxgjA-7">
          <mxGeometry y="78" width="160" height="8" as="geometry" />
        </mxCell>
        <mxCell id="2AGVGex4qNpOd4WzxgjA-10" value="+ Feature(string,int): type" style="text;strokeColor=none;fillColor=none;align=left;verticalAlign=top;spacingLeft=4;spacingRight=4;overflow=hidden;rotatable=0;points=[[0,0.5],[1,0.5]];portConstraint=eastwest;" vertex="1" parent="2AGVGex4qNpOd4WzxgjA-7">
          <mxGeometry y="86" width="160" height="26" as="geometry" />
        </mxCell>
        <mxCell id="2AGVGex4qNpOd4WzxgjA-15" value="+ Modify(type): void" style="text;strokeColor=none;fillColor=none;align=left;verticalAlign=top;spacingLeft=4;spacingRight=4;overflow=hidden;rotatable=0;points=[[0,0.5],[1,0.5]];portConstraint=eastwest;" vertex="1" parent="2AGVGex4qNpOd4WzxgjA-7">
          <mxGeometry y="112" width="160" height="26" as="geometry" />
        </mxCell>
        <mxCell id="2AGVGex4qNpOd4WzxgjA-11" value="+ Get_Val(type): void" style="text;strokeColor=none;fillColor=none;align=left;verticalAlign=top;spacingLeft=4;spacingRight=4;overflow=hidden;rotatable=0;points=[[0,0.5],[1,0.5]];portConstraint=eastwest;" vertex="1" parent="2AGVGex4qNpOd4WzxgjA-7">
          <mxGeometry y="138" width="160" height="26" as="geometry" />
        </mxCell>
        <mxCell id="2AGVGex4qNpOd4WzxgjA-12" value="+ Get_Name(type): void" style="text;strokeColor=none;fillColor=none;align=left;verticalAlign=top;spacingLeft=4;spacingRight=4;overflow=hidden;rotatable=0;points=[[0,0.5],[1,0.5]];portConstraint=eastwest;" vertex="1" parent="2AGVGex4qNpOd4WzxgjA-7">
          <mxGeometry y="164" width="160" height="26" as="geometry" />
        </mxCell>
        <mxCell id="2AGVGex4qNpOd4WzxgjA-16" value="+ __eq__(str): bool" style="text;strokeColor=none;fillColor=none;align=left;verticalAlign=top;spacingLeft=4;spacingRight=4;overflow=hidden;rotatable=0;points=[[0,0.5],[1,0.5]];portConstraint=eastwest;" vertex="1" parent="2AGVGex4qNpOd4WzxgjA-7">
          <mxGeometry y="190" width="160" height="26" as="geometry" />
        </mxCell>
        <mxCell id="lxGhpvrVPsPuXbHdnktH-1" value="Image_Features" style="swimlane;fontStyle=1;align=center;verticalAlign=top;childLayout=stackLayout;horizontal=1;startSize=26;horizontalStack=0;resizeParent=1;resizeParentMax=0;resizeLast=0;collapsible=1;marginBottom=0;" vertex="1" parent="1">
          <mxGeometry x="690" y="335.4" width="160" height="112" as="geometry" />
        </mxCell>
        <mxCell id="lxGhpvrVPsPuXbHdnktH-2" value="+ img: IMAGE" style="text;strokeColor=none;fillColor=none;align=left;verticalAlign=top;spacingLeft=4;spacingRight=4;overflow=hidden;rotatable=0;points=[[0,0.5],[1,0.5]];portConstraint=eastwest;" vertex="1" parent="lxGhpvrVPsPuXbHdnktH-1">
          <mxGeometry y="26" width="160" height="26" as="geometry" />
        </mxCell>
        <mxCell id="lxGhpvrVPsPuXbHdnktH-3" value="" style="line;strokeWidth=1;fillColor=none;align=left;verticalAlign=middle;spacingTop=-1;spacingLeft=3;spacingRight=3;rotatable=0;labelPosition=right;points=[];portConstraint=eastwest;" vertex="1" parent="lxGhpvrVPsPuXbHdnktH-1">
          <mxGeometry y="52" width="160" height="8" as="geometry" />
        </mxCell>
        <mxCell id="lxGhpvrVPsPuXbHdnktH-4" value="+ Pre_process(): void" style="text;strokeColor=none;fillColor=none;align=left;verticalAlign=top;spacingLeft=4;spacingRight=4;overflow=hidden;rotatable=0;points=[[0,0.5],[1,0.5]];portConstraint=eastwest;" vertex="1" parent="lxGhpvrVPsPuXbHdnktH-1">
          <mxGeometry y="60" width="160" height="26" as="geometry" />
        </mxCell>
        <mxCell id="lxGhpvrVPsPuXbHdnktH-61" value="+ Add_Image(): void" style="text;strokeColor=none;fillColor=none;align=left;verticalAlign=top;spacingLeft=4;spacingRight=4;overflow=hidden;rotatable=0;points=[[0,0.5],[1,0.5]];portConstraint=eastwest;" vertex="1" parent="lxGhpvrVPsPuXbHdnktH-1">
          <mxGeometry y="86" width="160" height="26" as="geometry" />
        </mxCell>
        <mxCell id="lxGhpvrVPsPuXbHdnktH-7" value="Feature_Data_Struct" style="swimlane;fontStyle=1;align=center;verticalAlign=top;childLayout=stackLayout;horizontal=1;startSize=26;horizontalStack=0;resizeParent=1;resizeParentMax=0;resizeLast=0;collapsible=1;marginBottom=0;" vertex="1" parent="1">
          <mxGeometry x="560" y="90" width="250" height="164" as="geometry" />
        </mxCell>
        <mxCell id="lxGhpvrVPsPuXbHdnktH-8" value="+ list_of_features: Feature[]" style="text;strokeColor=none;fillColor=none;align=left;verticalAlign=top;spacingLeft=4;spacingRight=4;overflow=hidden;rotatable=0;points=[[0,0.5],[1,0.5]];portConstraint=eastwest;" vertex="1" parent="lxGhpvrVPsPuXbHdnktH-7">
          <mxGeometry y="26" width="250" height="26" as="geometry" />
        </mxCell>
        <mxCell id="lxGhpvrVPsPuXbHdnktH-9" value="" style="line;strokeWidth=1;fillColor=none;align=left;verticalAlign=middle;spacingTop=-1;spacingLeft=3;spacingRight=3;rotatable=0;labelPosition=right;points=[];portConstraint=eastwest;" vertex="1" parent="lxGhpvrVPsPuXbHdnktH-7">
          <mxGeometry y="52" width="250" height="8" as="geometry" />
        </mxCell>
        <mxCell id="lxGhpvrVPsPuXbHdnktH-10" value="+ __cmp__(Feature_Data_Struct): type" style="text;strokeColor=none;fillColor=none;align=left;verticalAlign=top;spacingLeft=4;spacingRight=4;overflow=hidden;rotatable=0;points=[[0,0.5],[1,0.5]];portConstraint=eastwest;" vertex="1" parent="lxGhpvrVPsPuXbHdnktH-7">
          <mxGeometry y="60" width="250" height="26" as="geometry" />
        </mxCell>
        <mxCell id="lxGhpvrVPsPuXbHdnktH-11" value="+ __eq__(Feature_Data_Struct): type" style="text;strokeColor=none;fillColor=none;align=left;verticalAlign=top;spacingLeft=4;spacingRight=4;overflow=hidden;rotatable=0;points=[[0,0.5],[1,0.5]];portConstraint=eastwest;" vertex="1" parent="lxGhpvrVPsPuXbHdnktH-7">
          <mxGeometry y="86" width="250" height="26" as="geometry" />
        </mxCell>
        <mxCell id="lxGhpvrVPsPuXbHdnktH-17" value="+ Modify_Feature(str,int): void" style="text;strokeColor=none;fillColor=none;align=left;verticalAlign=top;spacingLeft=4;spacingRight=4;overflow=hidden;rotatable=0;points=[[0,0.5],[1,0.5]];portConstraint=eastwest;" vertex="1" parent="lxGhpvrVPsPuXbHdnktH-7">
          <mxGeometry y="112" width="250" height="26" as="geometry" />
        </mxCell>
        <mxCell id="lxGhpvrVPsPuXbHdnktH-18" value="+ Look_Up_Feature(str): Feature" style="text;strokeColor=none;fillColor=none;align=left;verticalAlign=top;spacingLeft=4;spacingRight=4;overflow=hidden;rotatable=0;points=[[0,0.5],[1,0.5]];portConstraint=eastwest;" vertex="1" parent="lxGhpvrVPsPuXbHdnktH-7">
          <mxGeometry y="138" width="250" height="26" as="geometry" />
        </mxCell>
        <mxCell id="lxGhpvrVPsPuXbHdnktH-13" value="" style="endArrow=block;dashed=1;endFill=0;endSize=12;html=1;exitX=0.5;exitY=0;exitDx=0;exitDy=0;" edge="1" parent="1" source="lxGhpvrVPsPuXbHdnktH-1">
          <mxGeometry width="160" relative="1" as="geometry">
            <mxPoint x="340.02" y="267.4" as="sourcePoint" />
            <mxPoint x="690" y="250" as="targetPoint" />
          </mxGeometry>
        </mxCell>
        <mxCell id="lxGhpvrVPsPuXbHdnktH-27" style="edgeStyle=orthogonalEdgeStyle;rounded=0;orthogonalLoop=1;jettySize=auto;html=1;exitX=0;exitY=0.25;exitDx=0;exitDy=0;entryX=1;entryY=0.5;entryDx=0;entryDy=0;" edge="1" parent="1" source="lxGhpvrVPsPuXbHdnktH-21" target="2AGVGex4qNpOd4WzxgjA-14">
          <mxGeometry relative="1" as="geometry" />
        </mxCell>
        <mxCell id="lxGhpvrVPsPuXbHdnktH-21" value="Profile_Features" style="swimlane;fontStyle=1;align=center;verticalAlign=top;childLayout=stackLayout;horizontal=1;startSize=26;horizontalStack=0;resizeParent=1;resizeParentMax=0;resizeLast=0;collapsible=1;marginBottom=0;" vertex="1" parent="1">
          <mxGeometry x="485" y="335.4" width="160" height="86" as="geometry" />
        </mxCell>
        <mxCell id="lxGhpvrVPsPuXbHdnktH-22" value="+ questions: Question[]" style="text;strokeColor=none;fillColor=none;align=left;verticalAlign=top;spacingLeft=4;spacingRight=4;overflow=hidden;rotatable=0;points=[[0,0.5],[1,0.5]];portConstraint=eastwest;" vertex="1" parent="lxGhpvrVPsPuXbHdnktH-21">
          <mxGeometry y="26" width="160" height="26" as="geometry" />
        </mxCell>
        <mxCell id="lxGhpvrVPsPuXbHdnktH-23" value="" style="line;strokeWidth=1;fillColor=none;align=left;verticalAlign=middle;spacingTop=-1;spacingLeft=3;spacingRight=3;rotatable=0;labelPosition=right;points=[];portConstraint=eastwest;" vertex="1" parent="lxGhpvrVPsPuXbHdnktH-21">
          <mxGeometry y="52" width="160" height="8" as="geometry" />
        </mxCell>
        <mxCell id="lxGhpvrVPsPuXbHdnktH-24" value="+ Ask_Question(type): type" style="text;strokeColor=none;fillColor=none;align=left;verticalAlign=top;spacingLeft=4;spacingRight=4;overflow=hidden;rotatable=0;points=[[0,0.5],[1,0.5]];portConstraint=eastwest;" vertex="1" parent="lxGhpvrVPsPuXbHdnktH-21">
          <mxGeometry y="60" width="160" height="26" as="geometry" />
        </mxCell>
        <mxCell id="lxGhpvrVPsPuXbHdnktH-25" value="" style="endArrow=block;dashed=1;endFill=0;endSize=12;html=1;exitX=0.5;exitY=0;exitDx=0;exitDy=0;entryX=0.44;entryY=0.923;entryDx=0;entryDy=0;entryPerimeter=0;fontStyle=1" edge="1" parent="1" source="lxGhpvrVPsPuXbHdnktH-21" target="lxGhpvrVPsPuXbHdnktH-18">
          <mxGeometry width="160" relative="1" as="geometry">
            <mxPoint x="580" y="338" as="sourcePoint" />
            <mxPoint x="501.5" y="252.59799999999996" as="targetPoint" />
          </mxGeometry>
        </mxCell>
        <mxCell id="lxGhpvrVPsPuXbHdnktH-47" style="edgeStyle=orthogonalEdgeStyle;rounded=0;orthogonalLoop=1;jettySize=auto;html=1;exitX=0.5;exitY=0;exitDx=0;exitDy=0;entryX=0;entryY=0.5;entryDx=0;entryDy=0;" edge="1" parent="1" source="lxGhpvrVPsPuXbHdnktH-29" target="lxGhpvrVPsPuXbHdnktH-22">
          <mxGeometry relative="1" as="geometry">
            <Array as="points">
              <mxPoint x="260" y="490" />
              <mxPoint x="460" y="490" />
              <mxPoint x="460" y="374" />
            </Array>
          </mxGeometry>
        </mxCell>
        <mxCell id="lxGhpvrVPsPuXbHdnktH-29" value="Question" style="swimlane;fontStyle=1;align=center;verticalAlign=top;childLayout=stackLayout;horizontal=1;startSize=26;horizontalStack=0;resizeParent=1;resizeParentMax=0;resizeLast=0;collapsible=1;marginBottom=0;" vertex="1" parent="1">
          <mxGeometry x="210" y="520" width="160" height="138" as="geometry" />
        </mxCell>
        <mxCell id="lxGhpvrVPsPuXbHdnktH-30" value="- answer: string" style="text;strokeColor=none;fillColor=none;align=left;verticalAlign=top;spacingLeft=4;spacingRight=4;overflow=hidden;rotatable=0;points=[[0,0.5],[1,0.5]];portConstraint=eastwest;" vertex="1" parent="lxGhpvrVPsPuXbHdnktH-29">
          <mxGeometry y="26" width="160" height="26" as="geometry" />
        </mxCell>
        <mxCell id="lxGhpvrVPsPuXbHdnktH-35" value="- question: string" style="text;strokeColor=none;fillColor=none;align=left;verticalAlign=top;spacingLeft=4;spacingRight=4;overflow=hidden;rotatable=0;points=[[0,0.5],[1,0.5]];portConstraint=eastwest;" vertex="1" parent="lxGhpvrVPsPuXbHdnktH-29">
          <mxGeometry y="52" width="160" height="26" as="geometry" />
        </mxCell>
        <mxCell id="lxGhpvrVPsPuXbHdnktH-31" value="" style="line;strokeWidth=1;fillColor=none;align=left;verticalAlign=middle;spacingTop=-1;spacingLeft=3;spacingRight=3;rotatable=0;labelPosition=right;points=[];portConstraint=eastwest;" vertex="1" parent="lxGhpvrVPsPuXbHdnktH-29">
          <mxGeometry y="78" width="160" height="8" as="geometry" />
        </mxCell>
        <mxCell id="lxGhpvrVPsPuXbHdnktH-32" value="+ get_question(): string" style="text;strokeColor=none;fillColor=none;align=left;verticalAlign=top;spacingLeft=4;spacingRight=4;overflow=hidden;rotatable=0;points=[[0,0.5],[1,0.5]];portConstraint=eastwest;" vertex="1" parent="lxGhpvrVPsPuXbHdnktH-29">
          <mxGeometry y="86" width="160" height="26" as="geometry" />
        </mxCell>
        <mxCell id="lxGhpvrVPsPuXbHdnktH-34" value="+ get_answer(): string" style="text;strokeColor=none;fillColor=none;align=left;verticalAlign=top;spacingLeft=4;spacingRight=4;overflow=hidden;rotatable=0;points=[[0,0.5],[1,0.5]];portConstraint=eastwest;" vertex="1" parent="lxGhpvrVPsPuXbHdnktH-29">
          <mxGeometry y="112" width="160" height="26" as="geometry" />
        </mxCell>
        <mxCell id="lxGhpvrVPsPuXbHdnktH-39" value="Saveable" style="swimlane;fontStyle=1;align=center;verticalAlign=top;childLayout=stackLayout;horizontal=1;startSize=26;horizontalStack=0;resizeParent=1;resizeParentMax=0;resizeLast=0;collapsible=1;marginBottom=0;" vertex="1" parent="1">
          <mxGeometry x="90" y="30" width="170" height="164" as="geometry" />
        </mxCell>
        <mxCell id="lxGhpvrVPsPuXbHdnktH-40" value="+ file_location: string" style="text;strokeColor=none;fillColor=none;align=left;verticalAlign=top;spacingLeft=4;spacingRight=4;overflow=hidden;rotatable=0;points=[[0,0.5],[1,0.5]];portConstraint=eastwest;" vertex="1" parent="lxGhpvrVPsPuXbHdnktH-39">
          <mxGeometry y="26" width="170" height="26" as="geometry" />
        </mxCell>
        <mxCell id="lxGhpvrVPsPuXbHdnktH-45" value="+ data: string[]" style="text;strokeColor=none;fillColor=none;align=left;verticalAlign=top;spacingLeft=4;spacingRight=4;overflow=hidden;rotatable=0;points=[[0,0.5],[1,0.5]];portConstraint=eastwest;" vertex="1" parent="lxGhpvrVPsPuXbHdnktH-39">
          <mxGeometry y="52" width="170" height="26" as="geometry" />
        </mxCell>
        <mxCell id="lxGhpvrVPsPuXbHdnktH-41" value="" style="line;strokeWidth=1;fillColor=none;align=left;verticalAlign=middle;spacingTop=-1;spacingLeft=3;spacingRight=3;rotatable=0;labelPosition=right;points=[];portConstraint=eastwest;" vertex="1" parent="lxGhpvrVPsPuXbHdnktH-39">
          <mxGeometry y="78" width="170" height="8" as="geometry" />
        </mxCell>
        <mxCell id="lxGhpvrVPsPuXbHdnktH-42" value="+ Save(): void" style="text;strokeColor=none;fillColor=none;align=left;verticalAlign=top;spacingLeft=4;spacingRight=4;overflow=hidden;rotatable=0;points=[[0,0.5],[1,0.5]];portConstraint=eastwest;" vertex="1" parent="lxGhpvrVPsPuXbHdnktH-39">
          <mxGeometry y="86" width="170" height="26" as="geometry" />
        </mxCell>
        <mxCell id="lxGhpvrVPsPuXbHdnktH-43" value="+ Load(): void" style="text;strokeColor=none;fillColor=none;align=left;verticalAlign=top;spacingLeft=4;spacingRight=4;overflow=hidden;rotatable=0;points=[[0,0.5],[1,0.5]];portConstraint=eastwest;" vertex="1" parent="lxGhpvrVPsPuXbHdnktH-39">
          <mxGeometry y="112" width="170" height="26" as="geometry" />
        </mxCell>
        <mxCell id="lxGhpvrVPsPuXbHdnktH-46" value="+ data_to_obj(Saveable): void" style="text;strokeColor=none;fillColor=none;align=left;verticalAlign=top;spacingLeft=4;spacingRight=4;overflow=hidden;rotatable=0;points=[[0,0.5],[1,0.5]];portConstraint=eastwest;" vertex="1" parent="lxGhpvrVPsPuXbHdnktH-39">
          <mxGeometry y="138" width="170" height="26" as="geometry" />
        </mxCell>
        <mxCell id="lxGhpvrVPsPuXbHdnktH-48" value="" style="endArrow=block;dashed=1;endFill=0;endSize=12;html=1;exitX=0.5;exitY=0;exitDx=0;exitDy=0;" edge="1" parent="1" source="2AGVGex4qNpOd4WzxgjA-1" target="lxGhpvrVPsPuXbHdnktH-46">
          <mxGeometry width="160" relative="1" as="geometry">
            <mxPoint x="575" y="345.4" as="sourcePoint" />
            <mxPoint x="660" y="261.99800000000005" as="targetPoint" />
          </mxGeometry>
        </mxCell>
        <mxCell id="lxGhpvrVPsPuXbHdnktH-49" value="" style="endArrow=block;dashed=1;endFill=0;endSize=12;html=1;exitX=0.25;exitY=0;exitDx=0;exitDy=0;" edge="1" parent="1" source="lxGhpvrVPsPuXbHdnktH-29" target="lxGhpvrVPsPuXbHdnktH-46">
          <mxGeometry width="160" relative="1" as="geometry">
            <mxPoint x="360" y="267.4" as="sourcePoint" />
            <mxPoint x="214.77748691099487" y="204" as="targetPoint" />
          </mxGeometry>
        </mxCell>
        <mxCell id="lxGhpvrVPsPuXbHdnktH-93" style="edgeStyle=orthogonalEdgeStyle;rounded=0;orthogonalLoop=1;jettySize=auto;html=1;exitX=0;exitY=0;exitDx=0;exitDy=0;entryX=1;entryY=0.5;entryDx=0;entryDy=0;" edge="1" parent="1" source="lxGhpvrVPsPuXbHdnktH-52" target="lxGhpvrVPsPuXbHdnktH-92">
          <mxGeometry relative="1" as="geometry">
            <Array as="points">
              <mxPoint x="470" y="910" />
              <mxPoint x="470" y="817" />
            </Array>
          </mxGeometry>
        </mxCell>
        <mxCell id="lxGhpvrVPsPuXbHdnktH-52" value="Saveable_Loader" style="swimlane;fontStyle=1;align=center;verticalAlign=top;childLayout=stackLayout;horizontal=1;startSize=26;horizontalStack=0;resizeParent=1;resizeParentMax=0;resizeLast=0;collapsible=1;marginBottom=0;" vertex="1" parent="1">
          <mxGeometry x="500" y="910" width="190" height="112" as="geometry" />
        </mxCell>
        <mxCell id="lxGhpvrVPsPuXbHdnktH-53" value="+ file_location: type" style="text;strokeColor=none;fillColor=none;align=left;verticalAlign=top;spacingLeft=4;spacingRight=4;overflow=hidden;rotatable=0;points=[[0,0.5],[1,0.5]];portConstraint=eastwest;" vertex="1" parent="lxGhpvrVPsPuXbHdnktH-52">
          <mxGeometry y="26" width="190" height="26" as="geometry" />
        </mxCell>
        <mxCell id="lxGhpvrVPsPuXbHdnktH-54" value="" style="line;strokeWidth=1;fillColor=none;align=left;verticalAlign=middle;spacingTop=-1;spacingLeft=3;spacingRight=3;rotatable=0;labelPosition=right;points=[];portConstraint=eastwest;" vertex="1" parent="lxGhpvrVPsPuXbHdnktH-52">
          <mxGeometry y="52" width="190" height="8" as="geometry" />
        </mxCell>
        <mxCell id="lxGhpvrVPsPuXbHdnktH-55" value="+ csv_read(): void" style="text;strokeColor=none;fillColor=none;align=left;verticalAlign=top;spacingLeft=4;spacingRight=4;overflow=hidden;rotatable=0;points=[[0,0.5],[1,0.5]];portConstraint=eastwest;" vertex="1" parent="lxGhpvrVPsPuXbHdnktH-52">
          <mxGeometry y="60" width="190" height="26" as="geometry" />
        </mxCell>
        <mxCell id="lxGhpvrVPsPuXbHdnktH-56" value="+ Object_Create(Saveable): void" style="text;strokeColor=none;fillColor=none;align=left;verticalAlign=top;spacingLeft=4;spacingRight=4;overflow=hidden;rotatable=0;points=[[0,0.5],[1,0.5]];portConstraint=eastwest;" vertex="1" parent="lxGhpvrVPsPuXbHdnktH-52">
          <mxGeometry y="86" width="190" height="26" as="geometry" />
        </mxCell>
        <mxCell id="lxGhpvrVPsPuXbHdnktH-57" value="UI" style="swimlane;fontStyle=1;align=center;verticalAlign=top;childLayout=stackLayout;horizontal=1;startSize=26;horizontalStack=0;resizeParent=1;resizeParentMax=0;resizeLast=0;collapsible=1;marginBottom=0;" vertex="1" parent="1">
          <mxGeometry x="210" y="700" width="200" height="372" as="geometry" />
        </mxCell>
        <mxCell id="lxGhpvrVPsPuXbHdnktH-69" value="+ this_user_profile:Profile" style="text;strokeColor=none;fillColor=none;align=left;verticalAlign=top;spacingLeft=4;spacingRight=4;overflow=hidden;rotatable=0;points=[[0,0.5],[1,0.5]];portConstraint=eastwest;" vertex="1" parent="lxGhpvrVPsPuXbHdnktH-57">
          <mxGeometry y="26" width="200" height="26" as="geometry" />
        </mxCell>
        <mxCell id="lxGhpvrVPsPuXbHdnktH-58" value="+ album:ImageStorage" style="text;strokeColor=none;fillColor=none;align=left;verticalAlign=top;spacingLeft=4;spacingRight=4;overflow=hidden;rotatable=0;points=[[0,0.5],[1,0.5]];portConstraint=eastwest;" vertex="1" parent="lxGhpvrVPsPuXbHdnktH-57">
          <mxGeometry y="52" width="200" height="26" as="geometry" />
        </mxCell>
        <mxCell id="lxGhpvrVPsPuXbHdnktH-86" value="+ io:Internet_Handler" style="text;strokeColor=none;fillColor=none;align=left;verticalAlign=top;spacingLeft=4;spacingRight=4;overflow=hidden;rotatable=0;points=[[0,0.5],[1,0.5]];portConstraint=eastwest;" vertex="1" parent="lxGhpvrVPsPuXbHdnktH-57">
          <mxGeometry y="78" width="200" height="26" as="geometry" />
        </mxCell>
        <mxCell id="lxGhpvrVPsPuXbHdnktH-92" value="+ svl:Savable_loader" style="text;strokeColor=none;fillColor=none;align=left;verticalAlign=top;spacingLeft=4;spacingRight=4;overflow=hidden;rotatable=0;points=[[0,0.5],[1,0.5]];portConstraint=eastwest;" vertex="1" parent="lxGhpvrVPsPuXbHdnktH-57">
          <mxGeometry y="104" width="200" height="26" as="geometry" />
        </mxCell>
        <mxCell id="lxGhpvrVPsPuXbHdnktH-59" value="" style="line;strokeWidth=1;fillColor=none;align=left;verticalAlign=middle;spacingTop=-1;spacingLeft=3;spacingRight=3;rotatable=0;labelPosition=right;points=[];portConstraint=eastwest;" vertex="1" parent="lxGhpvrVPsPuXbHdnktH-57">
          <mxGeometry y="130" width="200" height="8" as="geometry" />
        </mxCell>
        <mxCell id="lxGhpvrVPsPuXbHdnktH-60" value="+ request_by_feat(): void" style="text;strokeColor=none;fillColor=none;align=left;verticalAlign=top;spacingLeft=4;spacingRight=4;overflow=hidden;rotatable=0;points=[[0,0.5],[1,0.5]];portConstraint=eastwest;" vertex="1" parent="lxGhpvrVPsPuXbHdnktH-57">
          <mxGeometry y="138" width="200" height="26" as="geometry" />
        </mxCell>
        <mxCell id="lxGhpvrVPsPuXbHdnktH-81" value="+ request_by_img(): void" style="text;strokeColor=none;fillColor=none;align=left;verticalAlign=top;spacingLeft=4;spacingRight=4;overflow=hidden;rotatable=0;points=[[0,0.5],[1,0.5]];portConstraint=eastwest;" vertex="1" parent="lxGhpvrVPsPuXbHdnktH-57">
          <mxGeometry y="164" width="200" height="26" as="geometry" />
        </mxCell>
        <mxCell id="lxGhpvrVPsPuXbHdnktH-82" value="+ pull_up_form(): void" style="text;strokeColor=none;fillColor=none;align=left;verticalAlign=top;spacingLeft=4;spacingRight=4;overflow=hidden;rotatable=0;points=[[0,0.5],[1,0.5]];portConstraint=eastwest;" vertex="1" parent="lxGhpvrVPsPuXbHdnktH-57">
          <mxGeometry y="190" width="200" height="26" as="geometry" />
        </mxCell>
        <mxCell id="lxGhpvrVPsPuXbHdnktH-80" value="+ take_picture(): Image" style="text;strokeColor=none;fillColor=none;align=left;verticalAlign=top;spacingLeft=4;spacingRight=4;overflow=hidden;rotatable=0;points=[[0,0.5],[1,0.5]];portConstraint=eastwest;" vertex="1" parent="lxGhpvrVPsPuXbHdnktH-57">
          <mxGeometry y="216" width="200" height="26" as="geometry" />
        </mxCell>
        <mxCell id="lxGhpvrVPsPuXbHdnktH-62" value="+ load_profile(): Profile" style="text;strokeColor=none;fillColor=none;align=left;verticalAlign=top;spacingLeft=4;spacingRight=4;overflow=hidden;rotatable=0;points=[[0,0.5],[1,0.5]];portConstraint=eastwest;" vertex="1" parent="lxGhpvrVPsPuXbHdnktH-57">
          <mxGeometry y="242" width="200" height="26" as="geometry" />
        </mxCell>
        <mxCell id="lxGhpvrVPsPuXbHdnktH-76" value="+ load_picture(): Profile" style="text;strokeColor=none;fillColor=none;align=left;verticalAlign=top;spacingLeft=4;spacingRight=4;overflow=hidden;rotatable=0;points=[[0,0.5],[1,0.5]];portConstraint=eastwest;" vertex="1" parent="lxGhpvrVPsPuXbHdnktH-57">
          <mxGeometry y="268" width="200" height="26" as="geometry" />
        </mxCell>
        <mxCell id="lxGhpvrVPsPuXbHdnktH-77" value="+ show_picture(): Profile" style="text;strokeColor=none;fillColor=none;align=left;verticalAlign=top;spacingLeft=4;spacingRight=4;overflow=hidden;rotatable=0;points=[[0,0.5],[1,0.5]];portConstraint=eastwest;" vertex="1" parent="lxGhpvrVPsPuXbHdnktH-57">
          <mxGeometry y="294" width="200" height="26" as="geometry" />
        </mxCell>
        <mxCell id="lxGhpvrVPsPuXbHdnktH-78" value="+ Login(): Profile" style="text;strokeColor=none;fillColor=none;align=left;verticalAlign=top;spacingLeft=4;spacingRight=4;overflow=hidden;rotatable=0;points=[[0,0.5],[1,0.5]];portConstraint=eastwest;" vertex="1" parent="lxGhpvrVPsPuXbHdnktH-57">
          <mxGeometry y="320" width="200" height="26" as="geometry" />
        </mxCell>
        <mxCell id="lxGhpvrVPsPuXbHdnktH-79" value="+ Create_Profile(): Profile" style="text;strokeColor=none;fillColor=none;align=left;verticalAlign=top;spacingLeft=4;spacingRight=4;overflow=hidden;rotatable=0;points=[[0,0.5],[1,0.5]];portConstraint=eastwest;" vertex="1" parent="lxGhpvrVPsPuXbHdnktH-57">
          <mxGeometry y="346" width="200" height="26" as="geometry" />
        </mxCell>
        <mxCell id="lxGhpvrVPsPuXbHdnktH-90" style="edgeStyle=orthogonalEdgeStyle;rounded=0;orthogonalLoop=1;jettySize=auto;html=1;exitX=0;exitY=0;exitDx=0;exitDy=0;entryX=1;entryY=0.5;entryDx=0;entryDy=0;" edge="1" parent="1" source="lxGhpvrVPsPuXbHdnktH-63" target="lxGhpvrVPsPuXbHdnktH-86">
          <mxGeometry relative="1" as="geometry">
            <Array as="points">
              <mxPoint x="510" y="740" />
              <mxPoint x="460" y="740" />
              <mxPoint x="460" y="791" />
            </Array>
          </mxGeometry>
        </mxCell>
        <mxCell id="lxGhpvrVPsPuXbHdnktH-63" value="Internet_Handler_Client" style="swimlane;fontStyle=1;align=center;verticalAlign=top;childLayout=stackLayout;horizontal=1;startSize=26;horizontalStack=0;resizeParent=1;resizeParentMax=0;resizeLast=0;collapsible=1;marginBottom=0;" vertex="1" parent="1">
          <mxGeometry x="510" y="730" width="170" height="164" as="geometry" />
        </mxCell>
        <mxCell id="lxGhpvrVPsPuXbHdnktH-64" value="+ server_IP: string" style="text;strokeColor=none;fillColor=none;align=left;verticalAlign=top;spacingLeft=4;spacingRight=4;overflow=hidden;rotatable=0;points=[[0,0.5],[1,0.5]];portConstraint=eastwest;" vertex="1" parent="lxGhpvrVPsPuXbHdnktH-63">
          <mxGeometry y="26" width="170" height="26" as="geometry" />
        </mxCell>
        <mxCell id="lxGhpvrVPsPuXbHdnktH-67" value="+ port: int" style="text;strokeColor=none;fillColor=none;align=left;verticalAlign=top;spacingLeft=4;spacingRight=4;overflow=hidden;rotatable=0;points=[[0,0.5],[1,0.5]];portConstraint=eastwest;" vertex="1" parent="lxGhpvrVPsPuXbHdnktH-63">
          <mxGeometry y="52" width="170" height="26" as="geometry" />
        </mxCell>
        <mxCell id="lxGhpvrVPsPuXbHdnktH-85" value="+ data: &quot;&quot;" style="text;strokeColor=none;fillColor=none;align=left;verticalAlign=top;spacingLeft=4;spacingRight=4;overflow=hidden;rotatable=0;points=[[0,0.5],[1,0.5]];portConstraint=eastwest;" vertex="1" parent="lxGhpvrVPsPuXbHdnktH-63">
          <mxGeometry y="78" width="170" height="26" as="geometry" />
        </mxCell>
        <mxCell id="lxGhpvrVPsPuXbHdnktH-65" value="" style="line;strokeWidth=1;fillColor=none;align=left;verticalAlign=middle;spacingTop=-1;spacingLeft=3;spacingRight=3;rotatable=0;labelPosition=right;points=[];portConstraint=eastwest;" vertex="1" parent="lxGhpvrVPsPuXbHdnktH-63">
          <mxGeometry y="104" width="170" height="8" as="geometry" />
        </mxCell>
        <mxCell id="lxGhpvrVPsPuXbHdnktH-66" value="+ Internet_Handler(string, int)" style="text;strokeColor=none;fillColor=none;align=left;verticalAlign=top;spacingLeft=4;spacingRight=4;overflow=hidden;rotatable=0;points=[[0,0.5],[1,0.5]];portConstraint=eastwest;" vertex="1" parent="lxGhpvrVPsPuXbHdnktH-63">
          <mxGeometry y="112" width="170" height="26" as="geometry" />
        </mxCell>
        <mxCell id="lxGhpvrVPsPuXbHdnktH-84" value="+ data_to_obj(Savable):void" style="text;strokeColor=none;fillColor=none;align=left;verticalAlign=top;spacingLeft=4;spacingRight=4;overflow=hidden;rotatable=0;points=[[0,0.5],[1,0.5]];portConstraint=eastwest;" vertex="1" parent="lxGhpvrVPsPuXbHdnktH-63">
          <mxGeometry y="138" width="170" height="26" as="geometry" />
        </mxCell>
        <mxCell id="lxGhpvrVPsPuXbHdnktH-70" value="ImageStorage" style="swimlane;fontStyle=1;align=center;verticalAlign=top;childLayout=stackLayout;horizontal=1;startSize=26;horizontalStack=0;resizeParent=1;resizeParentMax=0;resizeLast=0;collapsible=1;marginBottom=0;" vertex="1" parent="1">
          <mxGeometry x="-70" y="246" width="240" height="112" as="geometry" />
        </mxCell>
        <mxCell id="lxGhpvrVPsPuXbHdnktH-71" value="+ album: Image_Features[]" style="text;strokeColor=none;fillColor=none;align=left;verticalAlign=top;spacingLeft=4;spacingRight=4;overflow=hidden;rotatable=0;points=[[0,0.5],[1,0.5]];portConstraint=eastwest;" vertex="1" parent="lxGhpvrVPsPuXbHdnktH-70">
          <mxGeometry y="26" width="240" height="26" as="geometry" />
        </mxCell>
        <mxCell id="lxGhpvrVPsPuXbHdnktH-72" value="" style="line;strokeWidth=1;fillColor=none;align=left;verticalAlign=middle;spacingTop=-1;spacingLeft=3;spacingRight=3;rotatable=0;labelPosition=right;points=[];portConstraint=eastwest;" vertex="1" parent="lxGhpvrVPsPuXbHdnktH-70">
          <mxGeometry y="52" width="240" height="8" as="geometry" />
        </mxCell>
        <mxCell id="lxGhpvrVPsPuXbHdnktH-73" value="+ load_album(): type" style="text;strokeColor=none;fillColor=none;align=left;verticalAlign=top;spacingLeft=4;spacingRight=4;overflow=hidden;rotatable=0;points=[[0,0.5],[1,0.5]];portConstraint=eastwest;" vertex="1" parent="lxGhpvrVPsPuXbHdnktH-70">
          <mxGeometry y="60" width="240" height="26" as="geometry" />
        </mxCell>
        <mxCell id="lxGhpvrVPsPuXbHdnktH-75" value="+ save_image(Image_Features):void" style="text;strokeColor=none;fillColor=none;align=left;verticalAlign=top;spacingLeft=4;spacingRight=4;overflow=hidden;rotatable=0;points=[[0,0.5],[1,0.5]];portConstraint=eastwest;" vertex="1" parent="lxGhpvrVPsPuXbHdnktH-70">
          <mxGeometry y="86" width="240" height="26" as="geometry" />
        </mxCell>
        <mxCell id="lxGhpvrVPsPuXbHdnktH-74" value="" style="endArrow=block;dashed=1;endFill=0;endSize=12;html=1;exitX=0.5;exitY=0;exitDx=0;exitDy=0;entryX=0.277;entryY=1.057;entryDx=0;entryDy=0;entryPerimeter=0;" edge="1" parent="1" source="lxGhpvrVPsPuXbHdnktH-70" target="lxGhpvrVPsPuXbHdnktH-46">
          <mxGeometry width="160" relative="1" as="geometry">
            <mxPoint x="230" y="530" as="sourcePoint" />
            <mxPoint x="186.72566371681387" y="204" as="targetPoint" />
          </mxGeometry>
        </mxCell>
        <mxCell id="lxGhpvrVPsPuXbHdnktH-88" style="edgeStyle=orthogonalEdgeStyle;rounded=0;orthogonalLoop=1;jettySize=auto;html=1;exitX=0;exitY=0.5;exitDx=0;exitDy=0;entryX=0;entryY=0.5;entryDx=0;entryDy=0;" edge="1" parent="1" source="lxGhpvrVPsPuXbHdnktH-71" target="lxGhpvrVPsPuXbHdnktH-58">
          <mxGeometry relative="1" as="geometry">
            <mxPoint x="170.17647058823513" y="520" as="targetPoint" />
            <Array as="points">
              <mxPoint x="-90" y="285" />
              <mxPoint x="-90" y="765" />
            </Array>
          </mxGeometry>
        </mxCell>
        <mxCell id="lxGhpvrVPsPuXbHdnktH-89" style="edgeStyle=orthogonalEdgeStyle;rounded=0;orthogonalLoop=1;jettySize=auto;html=1;exitX=0;exitY=0.5;exitDx=0;exitDy=0;entryX=0;entryY=0.5;entryDx=0;entryDy=0;" edge="1" parent="1" source="2AGVGex4qNpOd4WzxgjA-14" target="lxGhpvrVPsPuXbHdnktH-69">
          <mxGeometry relative="1" as="geometry">
            <Array as="points">
              <mxPoint x="190" y="296" />
              <mxPoint x="190" y="739" />
            </Array>
          </mxGeometry>
        </mxCell>
        <mxCell id="AEnVumFd9ubIAorNIs_c-1" value="Note:Not needed if this is server side" style="text;html=1;strokeColor=none;fillColor=none;align=center;verticalAlign=middle;whiteSpace=wrap;rounded=0;" vertex="1" parent="1">
          <mxGeometry x="690" y="730" width="100" height="20" as="geometry" />
        </mxCell>
      </root>
    </mxGraphModel>
  </diagram>
  <diagram id="uM8hae2lPKw8B0MAjzU_" name="Backend">
    <mxGraphModel dx="1221" dy="715" grid="1" gridSize="10" guides="1" tooltips="1" connect="1" arrows="1" fold="1" page="1" pageScale="1" pageWidth="850" pageHeight="1100" math="0" shadow="0">
      <root>
        <mxCell id="jghp7owgNocO_XPZoshO-0" />
        <mxCell id="jghp7owgNocO_XPZoshO-1" parent="jghp7owgNocO_XPZoshO-0" />
        <mxCell id="e1Vlnm7Dwkc-jWcYri76-0" value="Internet_Handler_Server" style="swimlane;fontStyle=1;align=center;verticalAlign=top;childLayout=stackLayout;horizontal=1;startSize=26;horizontalStack=0;resizeParent=1;resizeParentMax=0;resizeLast=0;collapsible=1;marginBottom=0;" vertex="1" parent="jghp7owgNocO_XPZoshO-1">
          <mxGeometry x="450" y="120" width="170" height="138" as="geometry" />
        </mxCell>
        <mxCell id="e1Vlnm7Dwkc-jWcYri76-1" value="+ server_IP: string" style="text;strokeColor=none;fillColor=none;align=left;verticalAlign=top;spacingLeft=4;spacingRight=4;overflow=hidden;rotatable=0;points=[[0,0.5],[1,0.5]];portConstraint=eastwest;" vertex="1" parent="e1Vlnm7Dwkc-jWcYri76-0">
          <mxGeometry y="26" width="170" height="26" as="geometry" />
        </mxCell>
        <mxCell id="e1Vlnm7Dwkc-jWcYri76-2" value="+ port: int" style="text;strokeColor=none;fillColor=none;align=left;verticalAlign=top;spacingLeft=4;spacingRight=4;overflow=hidden;rotatable=0;points=[[0,0.5],[1,0.5]];portConstraint=eastwest;" vertex="1" parent="e1Vlnm7Dwkc-jWcYri76-0">
          <mxGeometry y="52" width="170" height="26" as="geometry" />
        </mxCell>
        <mxCell id="e1Vlnm7Dwkc-jWcYri76-4" value="" style="line;strokeWidth=1;fillColor=none;align=left;verticalAlign=middle;spacingTop=-1;spacingLeft=3;spacingRight=3;rotatable=0;labelPosition=right;points=[];portConstraint=eastwest;" vertex="1" parent="e1Vlnm7Dwkc-jWcYri76-0">
          <mxGeometry y="78" width="170" height="8" as="geometry" />
        </mxCell>
        <mxCell id="e1Vlnm7Dwkc-jWcYri76-5" value="+ Internet_Handler(string, int)" style="text;strokeColor=none;fillColor=none;align=left;verticalAlign=top;spacingLeft=4;spacingRight=4;overflow=hidden;rotatable=0;points=[[0,0.5],[1,0.5]];portConstraint=eastwest;" vertex="1" parent="e1Vlnm7Dwkc-jWcYri76-0">
          <mxGeometry y="86" width="170" height="26" as="geometry" />
        </mxCell>
        <mxCell id="e1Vlnm7Dwkc-jWcYri76-6" value="+ obj_to_data(Savable):void" style="text;strokeColor=none;fillColor=none;align=left;verticalAlign=top;spacingLeft=4;spacingRight=4;overflow=hidden;rotatable=0;points=[[0,0.5],[1,0.5]];portConstraint=eastwest;" vertex="1" parent="e1Vlnm7Dwkc-jWcYri76-0">
          <mxGeometry y="112" width="170" height="26" as="geometry" />
        </mxCell>
        <mxCell id="e1Vlnm7Dwkc-jWcYri76-7" value="Server_UI" style="swimlane;fontStyle=1;align=center;verticalAlign=top;childLayout=stackLayout;horizontal=1;startSize=26;horizontalStack=0;resizeParent=1;resizeParentMax=0;resizeLast=0;collapsible=1;marginBottom=0;" vertex="1" parent="jghp7owgNocO_XPZoshO-1">
          <mxGeometry x="90" y="197.4" width="240" height="320" as="geometry" />
        </mxCell>
        <mxCell id="e1Vlnm7Dwkc-jWcYri76-8" value="+ app: Flask" style="text;strokeColor=none;fillColor=none;align=left;verticalAlign=top;spacingLeft=4;spacingRight=4;overflow=hidden;rotatable=0;points=[[0,0.5],[1,0.5]];portConstraint=eastwest;" vertex="1" parent="e1Vlnm7Dwkc-jWcYri76-7">
          <mxGeometry y="26" width="240" height="26" as="geometry" />
        </mxCell>
        <mxCell id="e1Vlnm7Dwkc-jWcYri76-11" value="+ io: Internet_Handler_Server" style="text;strokeColor=none;fillColor=none;align=left;verticalAlign=top;spacingLeft=4;spacingRight=4;overflow=hidden;rotatable=0;points=[[0,0.5],[1,0.5]];portConstraint=eastwest;" vertex="1" parent="e1Vlnm7Dwkc-jWcYri76-7">
          <mxGeometry y="52" width="240" height="26" as="geometry" />
        </mxCell>
        <mxCell id="e1Vlnm7Dwkc-jWcYri76-19" value="+ UI_htm_loc: string[]" style="text;strokeColor=none;fillColor=none;align=left;verticalAlign=top;spacingLeft=4;spacingRight=4;overflow=hidden;rotatable=0;points=[[0,0.5],[1,0.5]];portConstraint=eastwest;" vertex="1" parent="e1Vlnm7Dwkc-jWcYri76-7">
          <mxGeometry y="78" width="240" height="26" as="geometry" />
        </mxCell>
        <mxCell id="ha1rV_iaTOWzORjZSzC0-13" value="+ nn_process: Neural_Network_Wrapper" style="text;strokeColor=none;fillColor=none;align=left;verticalAlign=top;spacingLeft=4;spacingRight=4;overflow=hidden;rotatable=0;points=[[0,0.5],[1,0.5]];portConstraint=eastwest;" vertex="1" parent="e1Vlnm7Dwkc-jWcYri76-7">
          <mxGeometry y="104" width="240" height="26" as="geometry" />
        </mxCell>
        <mxCell id="ha1rV_iaTOWzORjZSzC0-0" value="+ front_end: UI" style="text;strokeColor=none;fillColor=none;align=left;verticalAlign=top;spacingLeft=4;spacingRight=4;overflow=hidden;rotatable=0;points=[[0,0.5],[1,0.5]];portConstraint=eastwest;" vertex="1" parent="e1Vlnm7Dwkc-jWcYri76-7">
          <mxGeometry y="130" width="240" height="26" as="geometry" />
        </mxCell>
        <mxCell id="ha1rV_iaTOWzORjZSzC0-9" value="+ DB: MY_SQL_Wrapper" style="text;strokeColor=none;fillColor=none;align=left;verticalAlign=top;spacingLeft=4;spacingRight=4;overflow=hidden;rotatable=0;points=[[0,0.5],[1,0.5]];portConstraint=eastwest;" vertex="1" parent="e1Vlnm7Dwkc-jWcYri76-7">
          <mxGeometry y="156" width="240" height="26" as="geometry" />
        </mxCell>
        <mxCell id="e1Vlnm7Dwkc-jWcYri76-9" value="" style="line;strokeWidth=1;fillColor=none;align=left;verticalAlign=middle;spacingTop=-1;spacingLeft=3;spacingRight=3;rotatable=0;labelPosition=right;points=[];portConstraint=eastwest;" vertex="1" parent="e1Vlnm7Dwkc-jWcYri76-7">
          <mxGeometry y="182" width="240" height="8" as="geometry" />
        </mxCell>
        <mxCell id="e1Vlnm7Dwkc-jWcYri76-10" value="+ method(type): type" style="text;strokeColor=none;fillColor=none;align=left;verticalAlign=top;spacingLeft=4;spacingRight=4;overflow=hidden;rotatable=0;points=[[0,0.5],[1,0.5]];portConstraint=eastwest;" vertex="1" parent="e1Vlnm7Dwkc-jWcYri76-7">
          <mxGeometry y="190" width="240" height="26" as="geometry" />
        </mxCell>
        <mxCell id="e1Vlnm7Dwkc-jWcYri76-16" value="+ Check_Request(): void" style="text;strokeColor=none;fillColor=none;align=left;verticalAlign=top;spacingLeft=4;spacingRight=4;overflow=hidden;rotatable=0;points=[[0,0.5],[1,0.5]];portConstraint=eastwest;" vertex="1" parent="e1Vlnm7Dwkc-jWcYri76-7">
          <mxGeometry y="216" width="240" height="26" as="geometry" />
        </mxCell>
        <mxCell id="e1Vlnm7Dwkc-jWcYri76-17" value="+ Process_Image(): void" style="text;strokeColor=none;fillColor=none;align=left;verticalAlign=top;spacingLeft=4;spacingRight=4;overflow=hidden;rotatable=0;points=[[0,0.5],[1,0.5]];portConstraint=eastwest;" vertex="1" parent="e1Vlnm7Dwkc-jWcYri76-7">
          <mxGeometry y="242" width="240" height="26" as="geometry" />
        </mxCell>
        <mxCell id="e1Vlnm7Dwkc-jWcYri76-18" value="+ Process_Feature_ls(): void" style="text;strokeColor=none;fillColor=none;align=left;verticalAlign=top;spacingLeft=4;spacingRight=4;overflow=hidden;rotatable=0;points=[[0,0.5],[1,0.5]];portConstraint=eastwest;" vertex="1" parent="e1Vlnm7Dwkc-jWcYri76-7">
          <mxGeometry y="268" width="240" height="26" as="geometry" />
        </mxCell>
        <mxCell id="e1Vlnm7Dwkc-jWcYri76-20" value="+ load_page(int): void" style="text;strokeColor=none;fillColor=none;align=left;verticalAlign=top;spacingLeft=4;spacingRight=4;overflow=hidden;rotatable=0;points=[[0,0.5],[1,0.5]];portConstraint=eastwest;" vertex="1" parent="e1Vlnm7Dwkc-jWcYri76-7">
          <mxGeometry y="294" width="240" height="26" as="geometry" />
        </mxCell>
        <mxCell id="e1Vlnm7Dwkc-jWcYri76-12" value="Neural_Network_Wrapper" style="swimlane;fontStyle=1;align=center;verticalAlign=top;childLayout=stackLayout;horizontal=1;startSize=26;horizontalStack=0;resizeParent=1;resizeParentMax=0;resizeLast=0;collapsible=1;marginBottom=0;" vertex="1" parent="jghp7owgNocO_XPZoshO-1">
          <mxGeometry x="580" y="290" width="190" height="164" as="geometry" />
        </mxCell>
        <mxCell id="e1Vlnm7Dwkc-jWcYri76-13" value="+ img_feat: Image_Features" style="text;strokeColor=none;fillColor=none;align=left;verticalAlign=top;spacingLeft=4;spacingRight=4;overflow=hidden;rotatable=0;points=[[0,0.5],[1,0.5]];portConstraint=eastwest;" vertex="1" parent="e1Vlnm7Dwkc-jWcYri76-12">
          <mxGeometry y="26" width="190" height="26" as="geometry" />
        </mxCell>
        <mxCell id="ha1rV_iaTOWzORjZSzC0-3" value="+ actual_code: Neural_Network" style="text;strokeColor=none;fillColor=none;align=left;verticalAlign=top;spacingLeft=4;spacingRight=4;overflow=hidden;rotatable=0;points=[[0,0.5],[1,0.5]];portConstraint=eastwest;" vertex="1" parent="e1Vlnm7Dwkc-jWcYri76-12">
          <mxGeometry y="52" width="190" height="26" as="geometry" />
        </mxCell>
        <mxCell id="e1Vlnm7Dwkc-jWcYri76-14" value="" style="line;strokeWidth=1;fillColor=none;align=left;verticalAlign=middle;spacingTop=-1;spacingLeft=3;spacingRight=3;rotatable=0;labelPosition=right;points=[];portConstraint=eastwest;" vertex="1" parent="e1Vlnm7Dwkc-jWcYri76-12">
          <mxGeometry y="78" width="190" height="8" as="geometry" />
        </mxCell>
        <mxCell id="e1Vlnm7Dwkc-jWcYri76-15" value="+ train(): " style="text;strokeColor=none;fillColor=none;align=left;verticalAlign=top;spacingLeft=4;spacingRight=4;overflow=hidden;rotatable=0;points=[[0,0.5],[1,0.5]];portConstraint=eastwest;" vertex="1" parent="e1Vlnm7Dwkc-jWcYri76-12">
          <mxGeometry y="86" width="190" height="26" as="geometry" />
        </mxCell>
        <mxCell id="ha1rV_iaTOWzORjZSzC0-2" value="+ test(): " style="text;strokeColor=none;fillColor=none;align=left;verticalAlign=top;spacingLeft=4;spacingRight=4;overflow=hidden;rotatable=0;points=[[0,0.5],[1,0.5]];portConstraint=eastwest;" vertex="1" parent="e1Vlnm7Dwkc-jWcYri76-12">
          <mxGeometry y="112" width="190" height="26" as="geometry" />
        </mxCell>
        <mxCell id="ha1rV_iaTOWzORjZSzC0-4" value="+ get_img_feat(): Image_Features" style="text;strokeColor=none;fillColor=none;align=left;verticalAlign=top;spacingLeft=4;spacingRight=4;overflow=hidden;rotatable=0;points=[[0,0.5],[1,0.5]];portConstraint=eastwest;" vertex="1" parent="e1Vlnm7Dwkc-jWcYri76-12">
          <mxGeometry y="138" width="190" height="26" as="geometry" />
        </mxCell>
        <mxCell id="ha1rV_iaTOWzORjZSzC0-1" value="Note:See App for this interface" style="text;html=1;strokeColor=none;fillColor=none;align=center;verticalAlign=middle;whiteSpace=wrap;rounded=0;" vertex="1" parent="jghp7owgNocO_XPZoshO-1">
          <mxGeometry x="40" y="310" width="40" height="20" as="geometry" />
        </mxCell>
        <mxCell id="ha1rV_iaTOWzORjZSzC0-5" value="MY_SQL_Wrapper" style="swimlane;fontStyle=1;align=center;verticalAlign=top;childLayout=stackLayout;horizontal=1;startSize=26;horizontalStack=0;resizeParent=1;resizeParentMax=0;resizeLast=0;collapsible=1;marginBottom=0;" vertex="1" parent="jghp7owgNocO_XPZoshO-1">
          <mxGeometry x="390" y="464" width="220" height="138" as="geometry" />
        </mxCell>
        <mxCell id="ha1rV_iaTOWzORjZSzC0-6" value="+ field: type" style="text;strokeColor=none;fillColor=none;align=left;verticalAlign=top;spacingLeft=4;spacingRight=4;overflow=hidden;rotatable=0;points=[[0,0.5],[1,0.5]];portConstraint=eastwest;" vertex="1" parent="ha1rV_iaTOWzORjZSzC0-5">
          <mxGeometry y="26" width="220" height="26" as="geometry" />
        </mxCell>
        <mxCell id="ha1rV_iaTOWzORjZSzC0-7" value="" style="line;strokeWidth=1;fillColor=none;align=left;verticalAlign=middle;spacingTop=-1;spacingLeft=3;spacingRight=3;rotatable=0;labelPosition=right;points=[];portConstraint=eastwest;" vertex="1" parent="ha1rV_iaTOWzORjZSzC0-5">
          <mxGeometry y="52" width="220" height="8" as="geometry" />
        </mxCell>
        <mxCell id="ha1rV_iaTOWzORjZSzC0-8" value="+ attribute_to_saveable(): saveable" style="text;strokeColor=none;fillColor=none;align=left;verticalAlign=top;spacingLeft=4;spacingRight=4;overflow=hidden;rotatable=0;points=[[0,0.5],[1,0.5]];portConstraint=eastwest;" vertex="1" parent="ha1rV_iaTOWzORjZSzC0-5">
          <mxGeometry y="60" width="220" height="26" as="geometry" />
        </mxCell>
        <mxCell id="ha1rV_iaTOWzORjZSzC0-15" value="+ saveable_to_attribute(saveable):void" style="text;strokeColor=none;fillColor=none;align=left;verticalAlign=top;spacingLeft=4;spacingRight=4;overflow=hidden;rotatable=0;points=[[0,0.5],[1,0.5]];portConstraint=eastwest;" vertex="1" parent="ha1rV_iaTOWzORjZSzC0-5">
          <mxGeometry y="86" width="220" height="26" as="geometry" />
        </mxCell>
        <mxCell id="ha1rV_iaTOWzORjZSzC0-16" value="+ load_db():void" style="text;strokeColor=none;fillColor=none;align=left;verticalAlign=top;spacingLeft=4;spacingRight=4;overflow=hidden;rotatable=0;points=[[0,0.5],[1,0.5]];portConstraint=eastwest;" vertex="1" parent="ha1rV_iaTOWzORjZSzC0-5">
          <mxGeometry y="112" width="220" height="26" as="geometry" />
        </mxCell>
        <mxCell id="ha1rV_iaTOWzORjZSzC0-11" style="edgeStyle=orthogonalEdgeStyle;rounded=0;orthogonalLoop=1;jettySize=auto;html=1;exitX=1;exitY=0.5;exitDx=0;exitDy=0;entryX=-0.002;entryY=0.089;entryDx=0;entryDy=0;entryPerimeter=0;" edge="1" parent="jghp7owgNocO_XPZoshO-1" source="e1Vlnm7Dwkc-jWcYri76-11" target="e1Vlnm7Dwkc-jWcYri76-0">
          <mxGeometry relative="1" as="geometry" />
        </mxCell>
        <mxCell id="ha1rV_iaTOWzORjZSzC0-12" style="edgeStyle=orthogonalEdgeStyle;rounded=0;orthogonalLoop=1;jettySize=auto;html=1;exitX=1;exitY=0.5;exitDx=0;exitDy=0;entryX=0;entryY=0.25;entryDx=0;entryDy=0;" edge="1" parent="jghp7owgNocO_XPZoshO-1" source="ha1rV_iaTOWzORjZSzC0-9" target="ha1rV_iaTOWzORjZSzC0-5">
          <mxGeometry relative="1" as="geometry" />
        </mxCell>
        <mxCell id="ha1rV_iaTOWzORjZSzC0-14" style="edgeStyle=orthogonalEdgeStyle;rounded=0;orthogonalLoop=1;jettySize=auto;html=1;exitX=1;exitY=0.5;exitDx=0;exitDy=0;entryX=-0.013;entryY=0.146;entryDx=0;entryDy=0;entryPerimeter=0;" edge="1" parent="jghp7owgNocO_XPZoshO-1" source="ha1rV_iaTOWzORjZSzC0-13" target="e1Vlnm7Dwkc-jWcYri76-12">
          <mxGeometry relative="1" as="geometry" />
        </mxCell>
      </root>
    </mxGraphModel>
  </diagram>
</mxfile>
